<svg xmlns="http://www.w3.org/2000/svg" viewBox="0 0 1024 1024" width="1024" height="1024">
  <defs>
    <!-- 배경 그라디언트 -->
    <linearGradient id="bgGradL" x1="0" y1="0" x2="1" y2="1">
      <stop offset="0%" stop-color="#f5ede0"/>
      <stop offset="100%" stop-color="#e8d8be"/>
    </linearGradient>
    <!-- 지도 패널 그라디언트 -->
    <linearGradient id="mapGradL" x1="0" y1="0" x2="1" y2="1">
      <stop offset="0%" stop-color="#ede0c8"/>
      <stop offset="100%" stop-color="#dfd0b0"/>
    </linearGradient>
    <!-- 핀 그라디언트 -->
    <linearGradient id="pinGradL" x1="0.5" y1="0" x2="0.5" y2="1">
      <stop offset="0%" stop-color="#ffe590"/>
      <stop offset="50%" stop-color="#ffd166"/>
      <stop offset="100%" stop-color="#c8962a"/>
    </linearGradient>
  </defs>

  <!-- 1. 배경 -->
  <rect width="1024" height="1024" rx="226" fill="url(#bgGradL)"/>

  <!-- 2. 골드 테두리 -->
  <rect width="1024" height="1024" rx="226" fill="none" stroke="#c0a060" stroke-width="10" opacity="0.6"/>
  <rect x="31" y="31" width="962" height="962" rx="200" fill="none" stroke="#c8a060" stroke-width="2.5" opacity="0.25"/>

  <!-- 3. 지도 패널 -->
  <rect x="143" y="215" width="738" height="564" rx="51" fill="url(#mapGradL)" stroke="#c0a060" stroke-width="4" opacity="0.9"/>

  <!-- 4. 격자선 가로 -->
  <line x1="143" y1="369" x2="881" y2="369" stroke="#9a7840" stroke-width="2" opacity="0.3"/>
  <line x1="143" y1="523" x2="881" y2="523" stroke="#9a7840" stroke-width="2" opacity="0.3"/>
  <line x1="143" y1="677" x2="881" y2="677" stroke="#9a7840" stroke-width="2" opacity="0.3"/>

  <!-- 5. 격자선 세로 -->
  <line x1="328" y1="215" x2="328" y2="779" stroke="#9a7840" stroke-width="2" opacity="0.3"/>
  <line x1="512" y1="215" x2="512" y2="779" stroke="#9a7840" stroke-width="2" opacity="0.3"/>
  <line x1="697" y1="215" x2="697" y2="779" stroke="#9a7840" stroke-width="2" opacity="0.3"/>

  <!-- 6. 도로 곡선 -->
  <path d="M143,451 Q308,420 512,461 Q717,502 881,451" stroke="#b08030" stroke-width="9" fill="none" stroke-linecap="round" opacity="0.35"/>
  <path d="M143,605 Q359,574 512,615 Q666,656 881,605" stroke="#b08030" stroke-width="6" fill="none" stroke-linecap="round" opacity="0.24"/>
  <path d="M410,215 Q390,410 410,615 Q420,718 410,779" stroke="#b08030" stroke-width="7" fill="none" stroke-linecap="round" opacity="0.32"/>
  <path d="M626,215 Q605,436 615,615 Q620,708 626,779" stroke="#b08030" stroke-width="4" fill="none" stroke-linecap="round" opacity="0.19"/>

  <!-- 7. 작은 위치 점 -->
  <circle cx="297" cy="400" r="13" fill="#b08030" opacity="0.40"/>
  <circle cx="708" cy="333" r="10" fill="#b08030" opacity="0.28"/>
  <circle cx="759" cy="605" r="10" fill="#b08030" opacity="0.35"/>
  <circle cx="266" cy="656" r="9" fill="#b08030" opacity="0.30"/>

  <!-- 8. 핀 그림자 -->
  <ellipse cx="512" cy="779" rx="72" ry="20" fill="#8a6020" opacity="0.2"/>

  <!-- 13. 핀 꼬리 -->
  <path d="M430,543 Q512,759 512,779 Q512,759 594,543 Q554,574 512,574 Q471,574 430,543" fill="#c8962a"/>

  <!-- 14. 꼬리 하이라이트 -->
  <path d="M497,564 Q512,718 512,779 Q512,718 527,564" stroke="white" stroke-width="3" fill="none" opacity="0.3"/>

  <!-- 9. 메인 핀 원 -->
  <circle cx="512" cy="461" r="113" fill="url(#pinGradL)"/>

  <!-- 10. 핀 광택 -->
  <ellipse cx="476" cy="420" rx="46" ry="36" fill="white" opacity="0.45"/>

  <!-- 11. 핀 내부 큰 원 -->
  <circle cx="512" cy="461" r="51" fill="#f0e4c8"/>

  <!-- 12. 핀 내부 골드 점 -->
  <circle cx="512" cy="461" r="20" fill="#ffd166"/>

  <!-- 15. 앱 이름 텍스트 -->
  <text x="512" y="902" text-anchor="middle" font-family="'Black Han Sans', sans-serif" font-size="87" font-weight="900" fill="#8a5e10" letter-spacing="5">맛Spot</text>

  <!-- 16. 코너 장식 점 -->
  <circle cx="185" cy="256" r="9" fill="#b08030" opacity="0.35"/>
  <circle cx="839" cy="256" r="9" fill="#b08030" opacity="0.40"/>
  <circle cx="185" cy="738" r="9" fill="#b08030" opacity="0.35"/>
  <circle cx="839" cy="738" r="9" fill="#b08030" opacity="0.40"/>
</svg>